<?xml version="1.0" encoding="UTF-8" standalone="no"?>
<!DOCTYPE svg PUBLIC "-//W3C//DTD SVG 1.1//EN" "http://www.w3.org/Graphics/SVG/1.1/DTD/svg11.dtd">

<!-- Created with Vectornator (http://vectornator.io/) -->
<svg height="100%" stroke-miterlimit="10" style="fill-rule:nonzero;clip-rule:evenodd;stroke-linecap:round;stroke-linejoin:round;" version="1.1" viewBox="0 0 1024 1024" width="100%" xml:space="preserve" xmlns="http://www.w3.org/2000/svg" xmlns:vectornator="http://vectornator.io" xmlns:xlink="http://www.w3.org/1999/xlink">
<metadata>
<vectornator:setting key="IsTimeLapseWatermarkDisabled" value="false"/>
<vectornator:setting key="UndoHistoryDisabled" value="true"/>
<vectornator:setting key="VNDimensionsVisible" value="true"/>
<vectornator:setting key="VNSnapToGuides" value="true"/>
<vectornator:setting key="WDCMYKEnabledKey" value="false"/>
<vectornator:setting key="WDDisplayWhiteBackground" value="false"/>
<vectornator:setting key="WDDynamicGuides" value="false"/>
<vectornator:setting key="WDGuidesVisible" value="true"/>
<vectornator:setting key="WDIsolateActiveLayer" value="false"/>
<vectornator:setting key="WDOutlineMode" value="false"/>
<vectornator:setting key="WDRulersVisible" value="true"/>
<vectornator:setting key="WDSnapToEdges" value="false"/>
<vectornator:setting key="WDSnapToGrid" value="false"/>
<vectornator:setting key="WDSnapToPoints" value="false"/>
<vectornator:setting key="WDUnits" value="Pixels"/>
</metadata>
<defs>
<radialGradient cx="510.926" cy="510.643" gradientTransform="matrix(1 0 0 1 0 0)" gradientUnits="userSpaceOnUse" id="RadialGradient" r="644.676">
<stop offset="0.442922" stop-color="#ffffff"/>
<stop offset="0.915916" stop-color="#eaeaea"/>
</radialGradient>
<filter color-interpolation-filters="sRGB" filterUnits="userSpaceOnUse" height="852.939" id="Filter" width="832.939" x="94.4564" y="94.1734">
<feDropShadow dx="-7.34641e-05" dy="20" flood-color="#bfbfbf" flood-opacity="1" in="SourceGraphic" result="Shadow" stdDeviation="0"/>
</filter>
</defs>
<g id="图层-1" vectornator:layerName="图层 1">
<path d="M286.646 94.1734L735.205 94.1734C841.349 94.1734 927.395 180.22 927.395 286.363L927.395 734.922C927.395 841.066 841.349 927.112 735.205 927.112L286.646 927.112C180.503 927.112 94.4564 841.066 94.4564 734.922L94.4564 286.363C94.4564 180.22 180.503 94.1734 286.646 94.1734Z" fill="url(#RadialGradient)" fill-rule="evenodd" filter="url(#Filter)" stroke="none" vectornator:shadowAngle="1.5708" vectornator:shadowColor="#bfbfbf" vectornator:shadowOffset="20" vectornator:shadowOpacity="1" vectornator:shadowRadius="0"/>
<path d="M411.546 411.546C712.908 411.546 311.092 612.454 612.454 612.454" fill="none" fill-rule="evenodd" opacity="1" stroke="#69b84a" stroke-linecap="butt" stroke-linejoin="miter" stroke-width="35.9693"/>
<path d="M311.092 311.092C366.571 311.092 411.546 356.067 411.546 411.546C411.546 467.025 366.571 512 311.092 512C255.613 512 210.638 467.025 210.638 411.546C210.638 356.067 255.613 311.092 311.092 311.092" fill="#ff7f00" fill-rule="evenodd" opacity="1" stroke="none"/>
<path d="M612.454 612.454C612.454 556.975 657.429 512 712.908 512C768.387 512 813.362 556.975 813.362 612.454C813.362 667.933 768.387 712.908 712.908 712.908C657.429 712.908 612.454 667.933 612.454 612.454Z" fill="#00f9f9" fill-rule="evenodd" opacity="1" stroke="none"/>
</g>
</svg>
